# xmcd
#
# Track frame offsets: 
#        150
#        15400
#        27977
#        39620
#        61400
#        72202
#        90100
#        107700
#        136080
#        149612
#        165342
#        176862
#        188962
#        202925
#
# Disc length: 2905 seconds
#
# Revision: 2
# Processed by: cddbd v1.5.2PL0 Copyright (c) Steve Scherf et al.
# Submitted via: ExactAudioCopy v0.99pb5
#
DISCID=b70b570e
DTITLE=Varios - Fiestas De quito
DYEAR=1995
DGENRE=Folklor  Latino
TTITLE0=Chulla quiteño
TTITLE1=Mi panecillo querido
TTITLE2=Cucharra de palo
TTITLE3=Son a Quito
TTITLE4=Si tu me olvidas
TTITLE5=Mi mundo bonito
TTITLE6=Toro barroso
TTITLE7=Popurri Ecuador
TTITLE8=El Camari
TTITLE9=Muevelo negra
TTITLE10=Chimbacalle
TTITLE11=Avecilla
TTITLE12=Fiesta en Ecuador
TTITLE13=Pais canela
EXTD=
EXTT0=
EXTT1=
EXTT2=
EXTT3=
EXTT4=
EXTT5=
EXTT6=
EXTT7=
EXTT8=
EXTT9=
EXTT10=
EXTT11=
EXTT12=
EXTT13=
PLAYORDER=
